<svg width="2800" height="2000" viewBox="0 0 2800 2000" fill="none" xmlns="http://www.w3.org/2000/svg">
<path d="M861.8 1544.4L869 1568L892.6 1575.3L869 1582.5L861.8 1606.1L854.5 1582.5L830.9 1575.3L854.5 1568L861.8 1544.4Z" fill="white"/>
<path opacity="0.5" d="M314.2 727.2C244.2 965.4 526.7 1471.5 1055.5 1678.8C1584.4 1886.1 2197.4 1825 2316.8 1507C2365.5 1376.9 2134.7 1200.3 2166.9 1056.5C2190.5 920.3 2611 665.3 2466 365.1C2321 64.8 1569.7 -20.9 1292.7 162.4C1015.5 345.9 920.5 393.2 852.8 417.8C754.4 457.3 384 489.2 314.2 727.2Z" fill="#34A697"/>
<path fill-rule="evenodd" clip-rule="evenodd" d="M2069.8 1429.4H696.7C667.2 1429.4 643.3 1405.5 643.3 1376V240.2C643.3 210.7 667.2 186.8 696.7 186.8H2069.8C2099.3 186.8 2123.2 210.7 2123.2 240.2V1376C2123.2 1405.5 2099.3 1429.4 2069.8 1429.4Z" fill="#84B2FE"/>
<path fill-rule="evenodd" clip-rule="evenodd" d="M2103.3 1458.2H730.2C700.7 1458.2 676.8 1434.3 676.8 1404.8V269C676.8 239.5 700.7 215.6 730.2 215.6H2103.3C2132.8 215.6 2156.7 239.5 2156.7 269V1404.8C2156.7 1434.3 2132.8 1458.2 2103.3 1458.2Z" fill="white"/>
<path fill-rule="evenodd" clip-rule="evenodd" d="M877.5 1034.7H967.6V1346.4H877.5V1034.7ZM1028 795.8H1118.1V1346.4H1028V795.8ZM1181.6 969.6H1271.7V1346.4H1181.6V969.6ZM1342.9 1030.4H1433V1346.4H1342.9V1030.4ZM1496.4 1156.3H1586.5V1346.4H1496.4V1156.3ZM1647 969.6H1737.1V1346.4H1647V969.6ZM1800.5 782.8H1890.6V1346.4H1800.5V782.8Z" fill="#DB3A55"/>
<path d="M989.5 784.8L971 767.6L1088.3 641.2L1383.7 654.5L1500.9 440L1737 295.9L1750.1 317.4L1519.7 457.9L1398.3 680.4L1098.8 666.9L989.5 784.8Z" fill="#2C7EFE"/>
<path fill-rule="evenodd" clip-rule="evenodd" d="M964.2 748.4C989.2 749.8 1008.1 771.1 1006.6 795.9C1005.3 820.7 984 839.8 959.1 838.3C934.3 837 915.4 815.6 916.7 790.8C918.2 766 939.4 747 964.2 748.4Z" fill="#2C7EFE"/>
<path d="M962.3 838.8C961.3 838.8 960.2 838.8 959.1 838.7C934.2 837.4 915 815.9 916.3 790.7C917 778.6 922.4 767.4 931.4 759.4C940.5 751.3 952.1 747.2 964.2 747.9C976.4 748.6 987.5 754 995.6 763C1003.7 772 1007.7 783.7 1007 795.8C1006.4 807.9 1001 819 992 827.1C983.8 834.7 973.3 838.7 962.3 838.8ZM961.1 748.7C950.3 748.8 940.1 752.8 931.9 760C923 767.9 917.7 778.9 917 790.8C915.7 815.5 934.5 836.6 959 837.9C971 838.6 982.5 834.6 991.4 826.6C1000.3 818.7 1005.5 807.7 1006.2 795.8C1006.9 783.9 1002.9 772.4 995 763.6C987.1 754.7 976.1 749.4 964.2 748.7C963.2 748.8 962.2 748.7 961.1 748.7Z" fill="#2C7EFE"/>
<path fill-rule="evenodd" clip-rule="evenodd" d="M963 770C976 770.8 985.8 781.9 985.1 794.7C984.4 807.6 973.4 817.5 960.4 816.8C947.5 816.1 937.7 805.1 938.3 792.1C939.1 779.2 950.2 769.3 963 770Z" fill="white"/>
<path d="M962 817.2H960.3C947.3 816.5 937.2 805.3 937.9 792.1C938.7 779.1 950 769 963.1 769.7C969.5 770.1 975.3 772.9 979.6 777.7C983.8 782.4 985.9 788.6 985.6 794.9C985.3 801.2 982.5 807.1 977.7 811.3C973.3 815.1 967.8 817.2 962 817.2ZM961.6 770.4C949.6 770.5 939.4 780 938.7 792.1C938.1 804.9 947.8 815.8 960.4 816.4C966.6 816.8 972.5 814.7 977.1 810.6C981.7 806.5 984.4 800.9 984.7 794.7C985.1 788.6 983 782.7 978.9 778.1C974.8 773.5 969.1 770.8 963 770.4H961.6Z" fill="white"/>
<path fill-rule="evenodd" clip-rule="evenodd" d="M1096.1 611.7C1120.9 613.2 1140 634.4 1138.5 659.2C1137.2 684 1115.8 703.1 1091 701.6C1066.2 700.1 1047.1 678.9 1048.6 654.1C1050 629.2 1071.3 610.2 1096.1 611.7Z" fill="#2C7EFE"/>
<path d="M1094.1 702.1C1093.1 702.1 1092 702.1 1091 702C1078.9 701.3 1067.7 695.9 1059.7 686.9C1051.6 677.8 1047.5 666.2 1048.2 654.1C1049.6 630.1 1069.4 611.5 1093.1 611.2C1094.1 611.2 1095.2 611.2 1096.2 611.3C1108.3 612 1119.5 617.4 1127.5 626.4C1135.6 635.5 1139.7 647.1 1139 659.2C1138.4 671.3 1133 682.4 1124 690.5C1115.6 697.9 1105.1 702 1094.1 702.1ZM1093 612C1069.8 612.2 1050.3 630.5 1048.9 654.1C1048.2 666 1052.2 677.4 1060.2 686.3C1068.1 695.2 1079.1 700.5 1091 701.2C1102.9 701.9 1114.4 697.9 1123.3 689.9C1132.2 681.9 1137.4 671 1138.1 659.2C1138.8 647.3 1134.8 635.9 1126.8 627C1118.9 618.1 1107.9 612.8 1096 612.1C1095.1 612 1094 612 1093 612Z" fill="#2C7EFE"/>
<path fill-rule="evenodd" clip-rule="evenodd" d="M1094.9 633.2C1107.9 634 1117.7 645.1 1117 657.9C1116.3 670.8 1105.3 680.7 1092.3 680C1079.4 679.2 1069.6 668.3 1070.2 655.3C1070.9 642.4 1082 632.6 1094.9 633.2Z" fill="white"/>
<path d="M1093.9 680.5H1092.2C1079.2 679.7 1069.1 668.4 1069.8 655.3C1070.6 642.3 1081.9 632.2 1095 632.9C1101.4 633.3 1107.2 636.1 1111.5 640.9C1115.7 645.6 1117.8 651.8 1117.5 658.1C1117.2 664.4 1114.4 670.3 1109.6 674.5C1105.1 678.3 1099.6 680.4 1093.9 680.5ZM1093.5 633.6C1081.5 633.7 1071.3 643.2 1070.6 655.3C1070 667.9 1079.7 678.8 1092.3 679.6C1098.5 680 1104.4 677.9 1109 673.8C1113.6 669.7 1116.3 664.1 1116.6 657.9C1117 651.8 1114.9 645.9 1110.8 641.3C1106.7 636.7 1101 634 1094.9 633.6H1093.5Z" fill="white"/>
<path fill-rule="evenodd" clip-rule="evenodd" d="M1391.6 622.7C1416.4 624.2 1435.3 645.4 1434 670.2C1432.5 695 1411.3 714.1 1386.5 712.6C1361.7 711.3 1342.6 689.9 1344.1 665.1C1345.4 640.3 1366.8 621.4 1391.6 622.7Z" fill="#2C7EFE"/>
<path d="M1389.6 713.2C1388.6 713.2 1387.5 713.2 1386.5 713.1C1374.4 712.5 1363.3 707.1 1355.2 698.1C1347.1 689 1343 677.3 1343.7 665.2C1344.3 653.1 1349.7 642 1358.8 633.9C1367.9 625.8 1379.5 621.8 1391.7 622.4C1416.6 623.9 1435.8 645.4 1434.5 670.4C1433 694.3 1413.2 712.9 1389.6 713.2ZM1388.7 623.1C1377.8 623.2 1367.5 627.2 1359.3 634.5C1350.4 642.4 1345.1 653.4 1344.5 665.2C1343.8 677.1 1347.8 688.6 1355.8 697.5C1363.8 706.4 1374.7 711.6 1386.5 712.3C1411.1 713.8 1432.2 694.9 1433.6 670.3C1434.9 645.8 1416 624.6 1391.6 623.2C1390.7 623.1 1389.7 623.1 1388.7 623.1Z" fill="#2C7EFE"/>
<path fill-rule="evenodd" clip-rule="evenodd" d="M1390.4 644.3C1403.3 645.1 1413.1 656.2 1412.5 669C1411.7 682 1400.6 691.8 1387.8 691.1C1374.8 690.4 1365 679.4 1365.7 666.4C1366.3 653.5 1377.4 643.7 1390.4 644.3Z" fill="white"/>
<path d="M1389.4 691.6H1387.7C1381.3 691.3 1375.5 688.5 1371.3 683.8C1367 679 1364.9 672.9 1365.3 666.5C1366 653.5 1377.2 643.4 1390.4 644.1C1403.4 644.9 1413.5 656.2 1412.8 669.2C1412.4 675.6 1409.6 681.4 1404.8 685.7C1400.6 689.4 1395.1 691.5 1389.4 691.6ZM1389 644.7C1376.9 644.8 1366.7 654.3 1366.1 666.4C1365.7 672.6 1367.8 678.6 1371.9 683.1C1376 687.7 1381.6 690.4 1387.8 690.7C1393.9 691.1 1399.8 689 1404.4 684.9C1409 680.8 1411.7 675.1 1412.1 669C1412.7 656.4 1403 645.5 1390.4 644.7H1389Z" fill="white"/>
<path fill-rule="evenodd" clip-rule="evenodd" d="M1515.2 403.2C1540 404.7 1558.9 425.9 1557.6 450.7C1556.1 475.5 1534.9 494.6 1510.1 493.1C1485.3 491.8 1466.2 470.4 1467.7 445.6C1469 420.8 1490.3 401.8 1515.2 403.2Z" fill="#2C7EFE"/>
<path d="M1513.1 493.6C1512.1 493.6 1511 493.6 1510 493.5C1497.9 492.9 1486.8 487.5 1478.7 478.5C1470.6 469.4 1466.5 457.7 1467.2 445.6C1467.8 433.5 1473.2 422.4 1482.3 414.3C1491.4 406.2 1503 402.2 1515.2 402.8C1540.1 404.3 1559.3 425.8 1558 450.8C1556.6 474.7 1536.8 493.4 1513.1 493.6ZM1512.3 403.5C1501.4 403.6 1491.1 407.6 1482.9 414.9C1474 422.8 1468.7 433.8 1468.1 445.6C1467.4 457.5 1471.4 469 1479.4 477.9C1487.4 486.8 1498.3 492 1510.1 492.7C1534.6 494.1 1555.8 475.3 1557.2 450.7C1558.5 426.2 1539.6 405 1515.2 403.6C1514.2 403.5 1513.2 403.5 1512.3 403.5Z" fill="#2C7EFE"/>
<path fill-rule="evenodd" clip-rule="evenodd" d="M1514 424.7C1526.9 425.5 1536.7 436.6 1536.1 449.4C1535.3 462.4 1524.2 472.2 1511.4 471.5C1498.4 470.8 1488.6 459.8 1489.3 446.8C1489.9 433.9 1501 424.1 1514 424.7Z" fill="white"/>
<path d="M1513 472H1511.3C1504.9 471.7 1499.1 468.9 1494.9 464.2C1490.6 459.4 1488.5 453.3 1488.9 446.9C1489.6 433.9 1500.9 423.8 1514 424.5C1527 425.3 1537.1 436.6 1536.4 449.6C1536 456 1533.2 461.8 1528.4 466.1C1524.1 469.8 1518.7 471.9 1513 472ZM1512.5 425.1C1500.4 425.2 1490.2 434.7 1489.6 446.8C1489.2 453 1491.3 459 1495.4 463.5C1499.5 468.1 1505.1 470.8 1511.3 471.1C1517.4 471.5 1523.3 469.4 1527.9 465.3C1532.5 461.2 1535.2 455.6 1535.6 449.4C1536.2 436.8 1526.5 425.9 1513.9 425.1H1512.5Z" fill="white"/>
<path fill-rule="evenodd" clip-rule="evenodd" d="M1800 272.2L1768.6 312.5L1737 352.7L1717.5 317L1698.1 281.4L1749.1 276.7L1800 272.2Z" fill="#2C7EFE"/>
<path d="M1736.9 353.4L1697.4 281L1749 276.3L1800.8 271.7L1768.8 312.7L1736.9 353.4ZM1698.7 281.7L1737 352L1768.2 312.3L1799.1 272.7L1749.1 277.1L1698.7 281.7Z" fill="#2C7EFE"/>
<path fill-rule="evenodd" clip-rule="evenodd" d="M2121.7 739.8H2407C2415.3 739.8 2422.1 746.6 2422.1 754.9V920C2422.1 928.3 2415.3 935.1 2407 935.1H2203.7L2150.9 988.7C2147.1 992.4 2143.8 991.4 2143.6 989.7V935.1H2121.6C2113.3 935.1 2106.5 928.3 2106.5 920V754.9C2106.6 746.6 2113.3 739.8 2121.7 739.8Z" fill="#8DAFDB"/>
<path fill-rule="evenodd" clip-rule="evenodd" d="M2110.8 730.7H2396.2C2404.5 730.7 2411.3 737.5 2411.3 745.8V910.9C2411.3 919.2 2404.5 926 2396.2 926H2192.9L2140.1 979.6C2136.3 983.3 2133 982.3 2132.8 980.6V926H2110.8C2102.5 926 2095.7 919.2 2095.7 910.9V745.8C2095.7 737.5 2102.5 730.7 2110.8 730.7Z" fill="white"/>
<path fill-rule="evenodd" clip-rule="evenodd" d="M2180.9 845.3C2171.6 845.3 2164 837.7 2164 828.4C2164 819.1 2171.6 811.5 2180.9 811.5C2190.2 811.5 2197.8 819.1 2197.8 828.4C2197.8 837.7 2190.2 845.3 2180.9 845.3ZM2252.3 845.3C2243 845.3 2235.4 837.7 2235.4 828.4C2235.4 819.1 2243 811.5 2252.3 811.5C2261.6 811.5 2269.2 819.1 2269.2 828.4C2269.2 837.7 2261.6 845.3 2252.3 845.3ZM2326.1 845.3C2316.8 845.3 2309.2 837.7 2309.2 828.4C2309.2 819.1 2316.8 811.5 2326.1 811.5C2335.4 811.5 2343 819.1 2343 828.4C2343 837.7 2335.4 845.3 2326.1 845.3Z" fill="#8DAFDB"/>
<path fill-rule="evenodd" clip-rule="evenodd" d="M569.9 782.8H284.5C276.2 782.8 269.4 789.6 269.4 797.9V963C269.4 971.3 276.2 978.1 284.5 978.1H487.8L540.6 1031.7C544.4 1035.4 547.7 1034.4 547.9 1032.7V978.1H569.9C578.2 978.1 585 971.3 585 963V797.9C585 789.6 578.2 782.8 569.9 782.8Z" fill="#8DAFDB"/>
<path fill-rule="evenodd" clip-rule="evenodd" d="M580.7 773.7H295.3C287 773.7 280.2 780.5 280.2 788.8V954C280.2 962.3 287 969.1 295.3 969.1H498.6L551.4 1022.7C555.2 1026.4 558.5 1025.4 558.7 1023.7V969H580.7C589 969 595.8 962.2 595.8 953.9V788.8C595.8 780.6 589 773.7 580.7 773.7Z" fill="white"/>
<path fill-rule="evenodd" clip-rule="evenodd" d="M510.6 888.3C519.9 888.3 527.5 880.7 527.5 871.4C527.5 862.1 519.9 854.5 510.6 854.5C501.3 854.5 493.7 862.1 493.7 871.4C493.7 880.7 501.3 888.3 510.6 888.3ZM439.2 888.3C448.5 888.3 456.1 880.7 456.1 871.4C456.1 862.1 448.5 854.5 439.2 854.5C429.9 854.5 422.3 862.1 422.3 871.4C422.3 880.7 429.9 888.3 439.2 888.3ZM365.4 888.3C374.7 888.3 382.3 880.7 382.3 871.4C382.3 862.1 374.7 854.5 365.4 854.5C356.1 854.5 348.5 862.1 348.5 871.4C348.5 880.7 356.1 888.3 365.4 888.3Z" fill="#8DAFDB"/>
<path d="M1400 1933.5C2061.64 1933.5 2598 1916.49 2598 1895.5C2598 1874.51 2061.64 1857.5 1400 1857.5C738.363 1857.5 202 1874.51 202 1895.5C202 1916.49 738.363 1933.5 1400 1933.5Z" fill="#093C3E"/>
<path fill-rule="evenodd" clip-rule="evenodd" d="M2215.2 1572.6H2232.5V1882.8H2215.2V1572.6ZM2025.7 1572.6H2043V1882.8H2025.7V1572.6ZM1914.4 1569.8H1931.7V1880H1914.4V1569.8Z" fill="#0643A3"/>
<path fill-rule="evenodd" clip-rule="evenodd" d="M2280.9 1298.3H2106.1C2099.2 1298.3 2092.8 1304.2 2091.9 1311.4C2085.4 1365 2078.8 1417.8 2072.4 1469.9C2066 1521.2 2059.8 1571.9 2053.7 1621.7C2085.5 1621.8 2117.4 1622 2149.2 1622.2C2181.1 1622.3 2213.1 1622.5 2245 1622.6C2252.4 1572.6 2260.1 1521.8 2267.8 1470.3C2275.6 1418.1 2283.4 1365.1 2291.5 1311.4C2292.7 1304.2 2287.8 1298.3 2280.9 1298.3Z" fill="#0643A3"/>
<path fill-rule="evenodd" clip-rule="evenodd" d="M2265.1 1298.3H2090.3C2083.4 1298.3 2077 1304.2 2076.1 1311.4C2069.6 1365 2063 1417.8 2056.6 1469.9C2050.3 1521.2 2044 1571.9 2037.9 1621.7C2069.7 1621.8 2101.6 1622 2133.4 1622.2C2165.3 1622.3 2197.3 1622.5 2229.2 1622.6C2236.8 1572.6 2244.3 1521.8 2252 1470.3C2259.8 1418.1 2267.8 1365.1 2275.7 1311.4C2276.9 1304.2 2272.1 1298.3 2265.1 1298.3Z" fill="#2C7EFE"/>
<path fill-rule="evenodd" clip-rule="evenodd" d="M2240.5 1579.2H1926.1L1920.8 1621.8C1952.6 1621.9 1984.5 1622.1 2016.3 1622.3L2078.6 1622.6H2112.1L2112.2 1622.2L2138.1 1622.3L2200.4 1622.6H2233.9L2240.5 1579.2Z" fill="#0643A3"/>
<path fill-rule="evenodd" clip-rule="evenodd" d="M1894.9 1360.6L1886.9 1326.7L1863.8 1330.5C1856.1 1323.5 1847.5 1309.9 1840.8 1309.5C1828.5 1310.4 1848.6 1324.6 1844.5 1332.8C1830.2 1339.4 1814.1 1329.3 1800.3 1332.4C1770.2 1342.7 1795.3 1364.7 1817.4 1370C1829.6 1374.1 1847.5 1369.2 1864.8 1362.6L1894.9 1360.6Z" fill="#FFCDAD"/>
<path fill-rule="evenodd" clip-rule="evenodd" d="M2065.1 1238.6L2133.2 1251.3C2118.5 1281.6 2103.6 1312.1 2088.8 1342.5C2074.2 1369.5 2053.6 1367.3 2034.4 1367.4L1879.9 1367.2L1873.3 1327.3L2037.4 1298.9L2065.1 1238.6Z" fill="#F973A7"/>
<path fill-rule="evenodd" clip-rule="evenodd" d="M1824 1745.2L1789.6 1758.9C1753.8 1784.9 1704.6 1733.1 1713.7 1781.2L1773.5 1806.2L1789.3 1801.6L1789.5 1814.6L1811.9 1824.5C1825.3 1806.5 1821.5 1797.5 1825.8 1776.1L1824 1745.2Z" fill="#153663"/>
<path fill-rule="evenodd" clip-rule="evenodd" d="M1848.7 1726.8L1806.5 1718.8C1800.7 1732.1 1795 1745.5 1789.3 1758.7C1801.5 1764.5 1796.5 1782.8 1825.9 1776.1L1848.7 1726.8Z" fill="#F973A7"/>
<path fill-rule="evenodd" clip-rule="evenodd" d="M1999.2 1743.7L1981.8 1776.8C1971.1 1820.1 1900.4 1812.8 1938.2 1843.6L1999.8 1823.4L2008.8 1809.7L2017.3 1819.4L2040.7 1812.2C2039.4 1789.7 2030.8 1785.4 2020.3 1766.2L1999.2 1743.7Z" fill="#011B3F"/>
<path fill-rule="evenodd" clip-rule="evenodd" d="M2006.2 1713.5L1969 1735.1C1973.2 1749 1977.3 1762.9 1981.5 1776.8C1994.5 1773.2 2002.4 1790.4 2020.5 1766L2006.2 1713.5Z" fill="#F973A7"/>
<path fill-rule="evenodd" clip-rule="evenodd" d="M1910.9 1505.9L1975.1 1553.4L2022.1 1739.7C2013.4 1754.8 1988.7 1760.4 1967.7 1757.3L1896 1597.2L1910.9 1505.9Z" fill="#011B3F"/>
<path fill-rule="evenodd" clip-rule="evenodd" d="M2106.1 1454.7L2042.9 1471.3C2023.9 1468.1 2004.8 1464.9 1985.8 1461.8C1891.2 1444.7 1882.5 1471 1865.3 1507.6L1794.7 1731C1803.3 1744.7 1824.3 1759.1 1851.5 1758.5L1939.2 1561C1988 1572.4 2036.8 1584 2085.6 1595.4C2151.8 1613.5 2203.7 1598.5 2207.4 1534.7V1507.2L2106.1 1454.7Z" fill="#153663"/>
<path fill-rule="evenodd" clip-rule="evenodd" d="M2183 1144.9C2182.4 1203.6 2206.7 1175.8 2215.8 1224.6C2221.5 1255.3 2216.2 1250.8 2182.5 1258C2175.2 1259.6 2129.9 1254.8 2114.9 1267.2C2099.9 1279.6 2087.2 1257.5 2085.3 1244.9C2080.8 1216.2 2057.8 1191.3 2063.7 1162.5C2065.7 1152.5 2056 1121.7 2059.6 1119.7C2111.2 1092.5 2152.3 1120.4 2183 1144.9Z" fill="#060352"/>
<path fill-rule="evenodd" clip-rule="evenodd" d="M2080.5 1227.7C2133.5 1211 2192.5 1204.6 2203.7 1251.8L2207.3 1507.1C2141.1 1539.5 2073.8 1489.6 2042.8 1471.2C2045 1390.3 2035.7 1237.2 2080.5 1227.7Z" fill="#F973A7"/>
<path fill-rule="evenodd" clip-rule="evenodd" d="M2157.5 1135.2L2113.1 1190C2113.3 1199.2 2113.5 1208.3 2113.6 1217.5C2114.6 1247.9 2145.3 1224.3 2158.3 1218.5L2157.5 1135.2Z" fill="#FFAA81"/>
<path fill-rule="evenodd" clip-rule="evenodd" d="M2172.2 1115.2L2081.1 1105.6C2082.1 1138.6 2054 1216.1 2117.4 1205.2C2164.1 1197.7 2167 1151.4 2172.2 1115.2Z" fill="#FFCDAD"/>
<path fill-rule="evenodd" clip-rule="evenodd" d="M2071.9 1139.7C2051 1122.6 2054 1133.9 2042.1 1106.8C2034.7 1090 2042.8 1069.1 2096.2 1072.1C2133.4 1074.2 2167.6 1047.5 2167.5 1088.4C2167.5 1102 2198.8 1096.8 2189.2 1143C2185.5 1160.9 2171 1143.3 2166.2 1173.2C2163.4 1190.8 2155.8 1140.9 2155.6 1140.8C2141.9 1123.4 2094.3 1108.9 2080.7 1124.8C2080.6 1125.1 2072.9 1140.6 2071.9 1139.7Z" fill="#060352"/>
<path fill-rule="evenodd" clip-rule="evenodd" d="M2085.6 1182.9C2089.2 1191.6 2095.4 1197.5 2102.7 1197.9C2110 1198.3 2116.8 1193.2 2121.3 1184.9C2115.8 1187.2 2109.7 1188.3 2103.3 1188C2096.8 1187.6 2090.8 1185.8 2085.6 1182.9Z" fill="white"/>
<path fill-rule="evenodd" clip-rule="evenodd" d="M2173.6 1533L2141.6 1520.2L2131.4 1541.4C2121.4 1543.8 2105.4 1543 2101.3 1548.5C2095 1559.1 2118 1550.6 2122.3 1558.8C2119.5 1574.5 2102.1 1582 2096.5 1595.2C2087.6 1626 2119.8 1617.9 2136.8 1602.7C2147.2 1595 2153.4 1577.3 2158 1559.2L2173.6 1533Z" fill="#FFCDAD"/>
<path fill-rule="evenodd" clip-rule="evenodd" d="M2191.2 1229.3C2216.9 1253.3 2234.5 1294.5 2249.1 1324.6C2268.8 1368.7 2254.9 1376.4 2242.9 1405.9L2171.5 1546.6L2133.4 1530.5L2201.5 1368.3L2140.2 1280.8L2191.2 1229.3Z" fill="#F973A7"/>
<path d="M2179.8 1337.4C2185.6 1363.2 2185.3 1386.1 2178.6 1422.8L2201.5 1368.3L2179.8 1337.4Z" fill="#FF4D8A"/>
<path fill-rule="evenodd" clip-rule="evenodd" d="M2390.5 1469.8H2424V1898.2H2390.5V1469.8ZM1722.1 1469.8H1759.3V1898.2H1722.1V1469.8Z" fill="#8183F1"/>
<path fill-rule="evenodd" clip-rule="evenodd" d="M1683 1437.9H2445.9V1483H1683V1437.9Z" fill="#6666FF"/>
<path fill-rule="evenodd" clip-rule="evenodd" d="M2458.8 1414.6H1670.1L1683 1449.1H2445.9L2458.8 1414.6Z" fill="#8183F1"/>
<path fill-rule="evenodd" clip-rule="evenodd" d="M529.1 1580.9H546.3V1889.2H529.1V1580.9ZM717.5 1580.9H734.7V1889.2H717.5V1580.9ZM828.1 1578H845.3V1886.4H828.1V1578Z" fill="#BE96F8"/>
<path fill-rule="evenodd" clip-rule="evenodd" d="M481 1308.2H654.8C661.7 1308.2 668 1314.1 668.9 1321.3C675.5 1374.5 681.9 1427 688.3 1478.8C694.6 1529.8 700.8 1580.2 706.9 1629.8C675.2 1629.9 643.5 1630.1 611.9 1630.2C580.2 1630.3 548.4 1630.5 516.7 1630.6C509.3 1580.9 501.7 1530.4 494 1479.2C486.3 1427.4 478.4 1374.7 470.4 1321.3C469.4 1314.1 474.1 1308.2 481 1308.2Z" fill="#BE96F8"/>
<path fill-rule="evenodd" clip-rule="evenodd" d="M496.7 1308.2H670.5C677.4 1308.2 683.7 1314.1 684.6 1321.3C691.2 1374.5 697.6 1427 704 1478.8C710.3 1529.8 716.5 1580.2 722.6 1629.8C690.9 1629.9 659.2 1630.1 627.6 1630.2C595.9 1630.3 564.1 1630.5 532.4 1630.6C525 1580.9 517.4 1530.4 509.7 1479.2C502 1427.4 494.1 1374.7 486.1 1321.3C485 1314.1 489.7 1308.2 496.7 1308.2Z" fill="#DFCFFD"/>
<path fill-rule="evenodd" clip-rule="evenodd" d="M523.8 1587.4H836.4L841.6 1629.7C809.9 1629.8 778.2 1630 746.6 1630.1L684.7 1630.4L651.4 1630.5L651.3 1630L625.5 1630.1L563.5 1630.4L530.3 1630.5L523.8 1587.4Z" fill="#BE96F8"/>
<path fill-rule="evenodd" clip-rule="evenodd" d="M883.2 1811.9L906 1834.5C940.8 1843.6 1023.6 1836.5 1010.5 1861.6C964.7 1869.3 918.9 1876.9 873.1 1884.6C867.7 1875.1 866.5 1856.7 871.8 1841.5L883.2 1811.9Z" fill="#0643A3"/>
<path fill-rule="evenodd" clip-rule="evenodd" d="M898.2 1764.2L851.8 1769.2L871.7 1841.4C878.8 1844.6 897 1846.3 905.9 1834.4L898.2 1764.2ZM706.6 1285.8L729.8 1239.4L793.1 1256.8C820.7 1215.3 848.2 1173.8 875.8 1132.2C879.2 1121 880.6 1103 886 1098.5C898.4 1091.5 929.6 1069.1 927.8 1079.1C927.6 1082.3 908.7 1094.8 904.3 1105.7C908.7 1114.2 927.8 1122.7 917.5 1131.2L893 1147.5C863.7 1198.9 825.4 1301.3 805.2 1301.6C793.4 1303.1 739.5 1291.1 706.6 1285.8Z" fill="#FF9966"/>
<path fill-rule="evenodd" clip-rule="evenodd" d="M627.8 1209.9L668.4 1212.9C702.1 1218.2 747.4 1243.2 760.9 1245.9C769.2 1265 761.6 1281.2 751.9 1295.9C739.1 1294.6 713.5 1291.1 694.3 1288.7L702.4 1507.2L573.2 1503.9L580 1316.4L580.2 1296.8C589.8 1221.8 552.7 1226.3 593 1216.4C604.4 1213.7 607.9 1212.8 627.8 1209.9Z" fill="#EA718B"/>
<path fill-rule="evenodd" clip-rule="evenodd" d="M617.8 1159.7L661.2 1171.4C661.3 1186.1 661.3 1200.8 661.4 1215.5C652 1253.6 625.5 1221.3 620 1215.7L617.8 1159.7Z" fill="#FF9966"/>
<path fill-rule="evenodd" clip-rule="evenodd" d="M687.7 1084.3C700.6 1095.4 691.2 1113.7 705.6 1126.9C734.9 1153.9 700.7 1143.3 700.8 1152.7C701 1174.9 696.3 1178.4 682.5 1197.8C675.9 1207 635.1 1217.7 612.8 1175.4C607.5 1165.5 608 1160.3 607.7 1139.3C607.3 1094.5 609.4 1089.7 652.5 1070.4C680.1 1058 699.2 1075.4 687.7 1084.3Z" fill="#FFAB81"/>
<path fill-rule="evenodd" clip-rule="evenodd" d="M655 1173.3C664.7 1176.7 671 1182.2 684 1179.4C668.8 1195.5 659.4 1180.7 655 1173.3Z" fill="white"/>
<path fill-rule="evenodd" clip-rule="evenodd" d="M780.8 1828.2L799.6 1854.2C832.5 1868.8 915.3 1875.4 898.2 1898L758.9 1898.3C755.1 1888 756.9 1869.7 764.7 1855.6L780.8 1828.2Z" fill="#2C7EFE"/>
<path fill-rule="evenodd" clip-rule="evenodd" d="M803.4 1783.6L756.8 1781L764.7 1855.5C771.2 1859.8 788.9 1864.5 799.6 1854.2L803.4 1783.6Z" fill="#FF9966"/>
<path fill-rule="evenodd" clip-rule="evenodd" d="M759.5 1587.9L697.6 1507.2C755.2 1512.3 855.3 1517 871.5 1529.4C902.4 1551.5 902.8 1748.9 909.7 1816.1L855.2 1817.8L829 1587.9H759.5Z" fill="#0643A3"/>
<path fill-rule="evenodd" clip-rule="evenodd" d="M580.1 1496.9L696.7 1499.9C732.2 1508.2 786.3 1517.5 797.1 1535.6C815.3 1577.1 807.5 1762.4 806.1 1822.6L755.1 1823.5L733.6 1588H596.7C573.2 1587.9 561.4 1527.8 580.1 1496.9Z" fill="#2C7EFE"/>
<path fill-rule="evenodd" clip-rule="evenodd" d="M592.9 1495.4L603.7 1504.4C611.3 1512 629.9 1521 626.6 1527.2C624.1 1531.2 614.2 1521.4 607.8 1523.6C598.2 1533.2 622.2 1563 613.8 1570.2C601.6 1581.2 580.2 1577.7 574.7 1562.8C571.3 1555.1 577.2 1530.1 578 1507L592.9 1495.4Z" fill="#FF9966"/>
<path fill-rule="evenodd" clip-rule="evenodd" d="M598.5 1301.4L550.3 1302.8L548.8 1381.4L580.7 1517.6L605.9 1514.4L589.4 1384.4L598.5 1301.4Z" fill="#FF9966"/>
<path fill-rule="evenodd" clip-rule="evenodd" d="M591.6 1234C586.2 1230.2 583.9 1220.3 577 1221.6C552.5 1227 546.4 1297.9 546.6 1313.1C554.9 1320 583.3 1326.1 601.7 1316.2L591.6 1234Z" fill="#EA718B"/>
<path fill-rule="evenodd" clip-rule="evenodd" d="M626 1105.1C649 1093.2 675.1 1103.9 691.7 1090.4C698.6 1079.3 704.2 1046 687.4 1031.5C666.3 1018.8 626 1057.2 588.4 1070.2C576.1 1072.9 571.2 1080.6 570.8 1096.7C569.3 1123.6 595.3 1149.6 608.5 1163C627.1 1143.8 601 1121.6 626 1105.1Z" fill="#060352"/>
<path fill-rule="evenodd" clip-rule="evenodd" d="M690.1 1263.8L793.9 1264.1L897.4 1264.4C900 1264.4 901.8 1266.6 901.3 1269.2C896.4 1297.5 891.5 1325.7 886.6 1353.8C881.8 1381.8 876.9 1409.8 872.1 1437.6C871.7 1440.2 869.2 1442.3 866.6 1442.3H661.1C658.5 1442.3 656.7 1440.2 657.1 1437.6C661.6 1409.6 666.2 1381.6 670.8 1353.5C675.4 1325.3 680 1297 684.6 1268.6C685 1265.9 687.5 1263.8 690.1 1263.8Z" fill="#84B2FE"/>
<path fill-rule="evenodd" clip-rule="evenodd" d="M699 1263.8L802.8 1264.1L906.3 1264.4C908.9 1264.4 910.7 1266.6 910.2 1269.2C905.3 1297.5 900.4 1325.7 895.5 1353.8C890.7 1381.8 885.8 1409.8 881 1437.6C880.6 1440.2 878.1 1442.3 875.5 1442.3H670C667.4 1442.3 665.6 1440.2 666 1437.6C670.5 1409.6 675.1 1381.6 679.7 1353.5C684.3 1325.3 688.9 1297 693.5 1268.6C693.9 1265.9 696.4 1263.8 699 1263.8Z" fill="#DFE6FF"/>
<path fill-rule="evenodd" clip-rule="evenodd" d="M785.2 1342C785.7 1341.9 786.3 1341.8 786.8 1341.7C786.6 1342.9 786.6 1344.1 786.9 1345.3C788.2 1351 794.6 1354.5 801.2 1353C802 1352.8 802.7 1352.6 803.4 1352.3C804.6 1359.3 799.2 1366.3 791.1 1368.2C782.8 1370.1 774.7 1365.7 773 1358.5C771.4 1351.2 776.8 1343.9 785.2 1342Z" fill="white"/>
<path fill-rule="evenodd" clip-rule="evenodd" d="M1036.7 1471.7H1067.7V1897.7H1036.7V1471.7ZM401.6 1471.7H432.6V1897.7H401.6V1471.7Z" fill="#BE96F8"/>
<path fill-rule="evenodd" clip-rule="evenodd" d="M354 1461.8H1112.4V1506.7H354V1461.8Z" fill="#8183F1"/>
<path fill-rule="evenodd" clip-rule="evenodd" d="M341.2 1438.8H1125.2L1112.3 1473.1H354L341.2 1438.8Z" fill="#BE96F8"/>
<path fill-rule="evenodd" clip-rule="evenodd" d="M1516.7 1836.4L1516.8 1808.5L1466.6 1805.6L1466 1835.4C1459.2 1846.5 1459.5 1863.8 1461.1 1878.4L1598.9 1875.2C1613.1 1836.6 1544.1 1849.3 1516.7 1836.4ZM1257.5 1818.6L1265.2 1791.8L1217.7 1775.2L1208.9 1803.8C1199.3 1812.6 1194.9 1829.3 1192.3 1843.8L1325.7 1878.6C1350.2 1845.3 1280.3 1838.5 1257.5 1818.6Z" fill="#153663"/>
<path d="M1140.6 1207.5L1152.8 1245.4L1159.3 1284.8C1153.1 1293.6 1149 1273 1143.9 1267.1C1141.2 1278.6 1141.2 1279 1138.5 1290.5C1135.5 1306.9 1094.7 1287.3 1097.1 1274.9L1118.6 1232L1140.6 1207.5Z" fill="#FCB790"/>
<path fill-rule="evenodd" clip-rule="evenodd" d="M1426.1 1182.7L1478.5 1280.4L1536 1552.4L1524.3 1815L1463.1 1814.9L1442 1559.8L1395.8 1428.6L1364.2 1559.6L1262.3 1807.4L1201.7 1790.4L1266 1551L1272.4 1282.2L1426.1 1182.7Z" fill="#262B62"/>
<path fill-rule="evenodd" clip-rule="evenodd" d="M1589.4 912.2L1559.9 911.9L1558.4 885.2L1548.6 865C1546.9 861 1547.8 857.4 1549.9 854.2C1563 834.5 1579.2 801.9 1586.8 804.8C1593.4 806.5 1575.4 834.9 1569.7 850C1574.7 852.9 1579.7 855.8 1584.7 858.6C1588 862.6 1588.3 866.5 1587.6 870.4L1583.9 883.2L1589.4 912.2Z" fill="#FCB790"/>
<path fill-rule="evenodd" clip-rule="evenodd" d="M1142 1101.4C1213.4 976.4 1253.1 942 1370.6 937.1C1432.3 936.1 1499 974.1 1553 992C1555.1 955.4 1554 928.7 1554.4 897.1L1590.5 895.4C1596.6 937.4 1599.5 979.5 1605.6 1021.5C1611.1 1058.3 1592.2 1069.8 1566.7 1063.9L1464.2 1040.2L1478 1279.6C1432.9 1307.5 1333.7 1328.9 1272.5 1282.3L1272.2 1048.6L1203.3 1130.5L1155 1237.8L1114.7 1226L1142 1101.4Z" fill="#DFCFFD"/>
<path fill-rule="evenodd" clip-rule="evenodd" d="M1367.6 978.5L1363.8 987.7L1353.2 1242L1372.4 1262.8L1390.7 1242.8L1371.2 987.7L1367.6 978.5Z" fill="#84B2FE"/>
<path fill-rule="evenodd" clip-rule="evenodd" d="M1367.4 959.7L1375.3 969L1383.3 978.4L1375.3 987.7L1367.4 997L1359.4 987.7L1351.5 978.4L1359.4 969L1367.4 959.7Z" fill="#2C7EFE"/>
<path fill-rule="evenodd" clip-rule="evenodd" d="M1218.5 1112.2L1276.7 1025.8C1278.7 1133.1 1282.1 1217.3 1294 1295.2C1286.4 1291.6 1279.2 1287.3 1272.4 1282.1L1272.1 1048.4L1218.5 1112.2ZM1367.2 960.7L1335 932.3L1318.6 943.6L1353 999.5C1357 988.6 1361 977.7 1364.9 966.8C1366.3 963.2 1368.2 963.2 1369.6 966.8L1381.6 999.5L1416.5 943.5L1399.6 932.3L1367.4 960.7L1367.5 960.9H1367.2V960.7Z" fill="#8183F1"/>
<path fill-rule="evenodd" clip-rule="evenodd" d="M1367.2 956.4L1335 932.3L1318.6 941.9L1353 989.4C1357 980.1 1361 970.9 1364.9 961.6C1366.3 958.6 1368.2 958.6 1369.6 961.6L1381.6 989.4L1416.5 941.9L1399.6 932.3L1367.4 956.4L1367.5 956.5H1367.2V956.4Z" fill="#DFCFFD"/>
<path fill-rule="evenodd" clip-rule="evenodd" d="M1390.5 857.4L1332.2 854.3L1337.3 933.8C1345.1 940.6 1354.7 959.7 1369.6 961.6C1378.5 959.3 1392.5 941.4 1396 936.1L1390.5 857.4Z" fill="#F69668"/>
<path fill-rule="evenodd" clip-rule="evenodd" d="M1327 808.4L1427.6 817.7C1430.8 851 1430.3 916.4 1427.3 918C1402.7 933.1 1363.4 925 1341.1 902.4C1329.4 872.4 1318.7 826.6 1327 808.4Z" fill="#F1AE8E"/>
<path fill-rule="evenodd" clip-rule="evenodd" d="M1335.6 822.6C1321.5 839.4 1331.9 863 1335 886.4C1314.7 866.3 1309.8 830.6 1303.6 800.4C1304.9 786 1322.2 787.3 1331 790.6C1328.1 781.7 1329.4 768.3 1345.8 765C1408 758.5 1442.9 795 1427.9 821.2C1381.8 808.8 1335 807.7 1335.6 822.6Z" fill="#1B174F"/>
<path fill-rule="evenodd" clip-rule="evenodd" d="M1427.3 918C1433.1 902.7 1431.4 894.8 1429.8 878.6C1429.7 860.8 1404.5 893.9 1372.1 889.6C1358.4 881.1 1338.9 831.6 1337 801.2L1323.5 809.5C1343.4 846.3 1331.5 898.5 1355.6 913.6C1377.6 928.4 1420.1 934.6 1427.3 918Z" fill="#1B174F"/>
<path fill-rule="evenodd" clip-rule="evenodd" d="M1335.4 855.6L1334.4 836.8C1331.7 826.9 1320.5 820.1 1317.7 831.9C1315.4 842.4 1331.5 860.9 1335.4 855.6Z" fill="#F1AE8E"/>
<path fill-rule="evenodd" clip-rule="evenodd" d="M1416.6 896.7C1413.9 902.9 1407.5 907.7 1399.9 908.4C1392.6 909.1 1386.1 906.1 1382.6 901.1C1389.5 901.6 1392.7 901 1399.1 900.4C1405.4 899.8 1410.1 899.1 1416.6 896.7Z" fill="white"/>
<path fill-rule="evenodd" clip-rule="evenodd" d="M2407.3 1307.8C2390.7 1297.4 2368.4 1263.1 2367.2 1233.3C2366.8 1224.2 2365.4 1192.6 2383.7 1192.4C2392.3 1199.2 2392.3 1223.7 2409.5 1212.8C2416.2 1205 2388.6 1197.7 2389.6 1187.7C2392.7 1174.5 2410.4 1155.7 2426 1158.2C2431.1 1162.8 2428 1201.6 2437 1202.1C2445.5 1200.4 2434.4 1177.6 2433.2 1165.4C2433.2 1153 2453.3 1149.6 2465.3 1146.3C2458.5 1160.7 2455.7 1173.7 2461.1 1175.2C2474.5 1177.2 2459.7 1152.9 2465.3 1146.3C2482.7 1141.5 2485.4 1133.3 2495.1 1137C2502.2 1147.5 2505.1 1152.5 2505.6 1164.5C2506.1 1190.6 2465.1 1194.1 2469.6 1201.7C2476.2 1206.1 2497.6 1184.3 2501.8 1186.8C2511.3 1190.3 2512.6 1211.2 2505.7 1216.8C2495.5 1225.1 2460.6 1226.6 2461 1233.8C2461.5 1242.8 2500.9 1223.6 2511.7 1234.9C2519.7 1245 2516.6 1263.3 2512.4 1275.2C2509.9 1292.3 2456.8 1261.4 2453.7 1266.8C2454.4 1283.1 2514.5 1282.6 2500.9 1304.7C2492.6 1315.9 2479 1319.3 2465.5 1321.9C2444.6 1325.7 2418.9 1315.6 2407.3 1307.8ZM2485.4 1242.4C2483.6 1241.1 2481.1 1241.7 2479.7 1243.7C2478.3 1245.7 2478.6 1248.3 2480.4 1249.6C2482.2 1250.8 2484.8 1250.2 2486.1 1248.2C2487.5 1246.2 2487.2 1243.6 2485.4 1242.4ZM2436 1226.9C2436.8 1233.5 2428.8 1228 2427.7 1224.5C2425.4 1220.6 2423.1 1214.4 2426.4 1210.5C2432.1 1211 2434.7 1218.7 2436 1226.9ZM2417.9 1248.1C2423.4 1240.1 2407.5 1228.1 2402.5 1230.2C2398.7 1233.3 2412.6 1252.5 2417.9 1248.1ZM2447.7 1283.5C2450.7 1285.5 2445.6 1286.9 2443.7 1286.1C2441.3 1285.6 2437.8 1284.4 2437.4 1281.6C2439.6 1279.4 2443.8 1281.1 2447.7 1283.5ZM2478 1206.1C2474.2 1204.7 2469.3 1207.3 2466.4 1209.9C2466.9 1212.9 2471.3 1211.8 2474.1 1211.4C2477.2 1211 2480.2 1208 2478 1206.1Z" fill="#17B59C"/>
<path d="M2388 1368.9C2387.1 1368.5 2386.5 1367.5 2386.8 1366.4C2396.1 1330.8 2408.2 1296.2 2422.8 1263.7C2439.3 1227 2459.4 1191.5 2482.8 1158.1C2483.5 1157.2 2484.8 1156.9 2485.7 1157.6C2486.6 1158.3 2486.9 1159.6 2486.2 1160.5C2441.9 1223.7 2410.7 1291.4 2390.8 1367.4C2390.5 1368.5 2389.4 1369.2 2388.3 1368.9C2388.2 1369 2388.1 1369 2388 1368.9Z" fill="#4B76BA"/>
<path d="M2452.9 1209.7C2452.5 1209.6 2452.2 1209.3 2452 1209C2447.2 1201.9 2444.3 1194.3 2443.5 1186.5C2442.8 1179.3 2443.8 1171.7 2446.5 1164.2C2446.9 1163.1 2448.1 1162.6 2449.2 1163C2450.3 1163.4 2450.8 1164.6 2450.4 1165.7C2445.1 1180.3 2446.8 1194.1 2455.4 1206.7C2456 1207.7 2455.8 1208.9 2454.9 1209.6C2454.3 1209.9 2453.6 1210 2452.9 1209.7Z" fill="#4B76BA"/>
<path d="M2420 1275.5C2420 1275.5 2419.9 1275.5 2419.9 1275.4C2394.1 1262.9 2379.8 1240.2 2378.6 1210C2378.6 1208.9 2379.5 1207.9 2380.6 1207.8C2381.7 1207.8 2382.7 1208.7 2382.8 1209.8C2383.9 1238.4 2397.3 1259.8 2421.7 1271.6C2422.7 1272.1 2423.2 1273.3 2422.7 1274.4C2422.2 1275.5 2421 1276 2420 1275.5Z" fill="#4B76BA"/>
<path d="M2452 1255C2446.2 1252.6 2440.2 1249.3 2433.7 1245.1C2432.7 1244.5 2432.5 1243.2 2433.1 1242.2C2433.7 1241.2 2435 1241 2436 1241.6C2458.6 1256.4 2476.8 1259.6 2498.6 1252.7C2499.7 1252.4 2500.9 1253 2501.2 1254.1C2501.5 1255.2 2500.9 1256.4 2499.8 1256.7C2487.4 1260.6 2476 1261.4 2464.8 1259.1C2460.43 1258.07 2456.15 1256.7 2452 1255Z" fill="#4B76BA"/>
<path d="M2428.5 1303.6C2421.9 1300.9 2416.5 1297.2 2412 1293.6C2411.1 1292.9 2410.9 1291.6 2411.7 1290.7C2412.4 1289.8 2413.7 1289.6 2414.6 1290.4C2427.3 1300.5 2446.7 1310.6 2484.2 1299.1C2485.3 1298.8 2486.5 1299.4 2486.8 1300.5C2487.1 1301.6 2486.5 1302.8 2485.4 1303.1C2459.3 1311 2441.4 1309 2428.5 1303.6Z" fill="#4B76BA"/>
<path fill-rule="evenodd" clip-rule="evenodd" d="M2362.9 1311.3C2343.6 1314.5 2304.2 1303.7 2283.5 1282.1C2277.1 1275.5 2255.2 1252.9 2268.7 1240.5C2279.6 1239.9 2295.9 1258.2 2301.5 1238.6C2301.4 1228.3 2275.8 1241.1 2270 1233C2263.5 1221 2264.4 1195.2 2277.6 1186.8C2284.5 1186.9 2307.9 1218 2314.9 1212.4C2320.2 1205.5 2296.7 1195.8 2287.7 1187.5C2279.5 1178.2 2292.3 1162.3 2299.1 1151.9C2303.5 1167.2 2310.1 1178.8 2315.2 1176.3C2326.5 1168.9 2299.4 1160.6 2299.1 1151.9C2309 1136.8 2305.5 1128.9 2315.2 1125.1C2327.4 1128.3 2333 1130.1 2341.3 1138.7C2358.9 1157.9 2330.6 1187.7 2339 1190.4C2346.9 1189.3 2348.4 1158.9 2353.2 1157.9C2362.6 1154.2 2377.5 1169 2376 1177.8C2373.9 1190.8 2348.8 1215.1 2353.8 1220.2C2360.1 1226.7 2376.9 1186.1 2392.4 1187.4C2405.1 1189.6 2414.9 1205.4 2419.6 1217.1C2429.1 1231.6 2368.8 1243.7 2370.1 1249.8C2381.4 1261.6 2426.1 1221.3 2430.6 1246.9C2431.8 1260.8 2423.9 1272.4 2415.5 1283.3C2402.7 1299.9 2376.8 1309.4 2362.9 1311.3ZM2378 1210.5C2375.8 1210.7 2374.3 1212.9 2374.6 1215.3C2374.9 1217.7 2376.8 1219.5 2379 1219.2C2381.2 1219 2382.7 1216.8 2382.4 1214.4C2382.1 1212 2380.2 1210.2 2378 1210.5ZM2330.8 1231.7C2335.8 1236.1 2326.1 1237.2 2323 1235.4C2318.7 1234 2312.9 1230.9 2312.8 1225.8C2317.2 1222.3 2324.3 1226.3 2330.8 1231.7ZM2331.2 1259.5C2330 1249.9 2310.2 1251.5 2307.8 1256.3C2307.1 1261.1 2330.2 1266.4 2331.2 1259.5ZM2377 1266.3C2380.6 1265.8 2377.7 1270.2 2375.8 1270.9C2373.7 1272.2 2370.3 1273.5 2368.1 1271.8C2368.3 1268.6 2372.5 1267 2377 1266.3ZM2348.4 1188.2C2344.6 1189.7 2342.7 1194.9 2342.2 1198.7C2344.6 1200.6 2347.2 1196.8 2349 1194.7C2351.1 1192.4 2351.3 1188.2 2348.4 1188.2Z" fill="#63C9EA"/>
<path d="M2387.4 1370.2C2386.8 1370 2386.4 1369.5 2386.1 1369C2369.5 1336.2 2355.6 1302.3 2344.9 1268.2C2332.9 1229.8 2324.4 1189.8 2319.8 1149.3C2319.6 1147.9 2320.7 1146.6 2322.1 1146.4C2323.5 1146.2 2324.8 1147.3 2325 1148.7C2333.8 1225.4 2355.3 1296.7 2390.7 1366.7C2391.4 1368 2390.8 1369.5 2389.6 1370.2C2388.9 1370.5 2388.1 1370.5 2387.4 1370.2Z" fill="#4B76BA"/>
<path d="M2323.1 1205.6C2317.9 1203.4 2313.2 1200.5 2309.2 1196.8C2303.8 1191.8 2299.5 1185.5 2296.5 1177.9C2296 1176.6 2296.6 1175.1 2298 1174.5C2299.3 1174 2300.8 1174.6 2301.4 1176C2307.1 1190.3 2317.3 1199.4 2332 1203.1C2333.4 1203.5 2334.2 1204.9 2333.9 1206.3C2333.5 1207.7 2332.1 1208.5 2330.7 1208.2C2328.1 1207.4 2325.6 1206.6 2323.1 1205.6Z" fill="#4B76BA"/>
<path d="M2304 1277C2294.1 1272.9 2284.8 1266.3 2276.3 1257.4C2275.3 1256.4 2275.3 1254.7 2276.4 1253.7C2277.4 1252.7 2279.1 1252.7 2280.1 1253.8C2299.8 1274.4 2323.9 1281.4 2349.7 1274.1C2351.1 1273.7 2352.5 1274.5 2352.9 1275.9C2353.3 1277.3 2352.5 1278.7 2351.1 1279.1C2334.5 1283.8 2318.6 1283.1 2304 1277Z" fill="#4B76BA"/>
<path d="M2339.8 1247.1C2339 1246.8 2338.4 1246 2338.2 1245.1C2338 1243.7 2339 1242.4 2340.4 1242.1C2367 1238.1 2382.5 1228.6 2394.2 1209.2C2394.9 1208 2396.5 1207.6 2397.8 1208.3C2399 1209 2399.4 1210.6 2398.7 1211.9C2392 1223.1 2383.9 1231.3 2373.9 1237C2365.2 1242 2354.8 1245.2 2341.2 1247.3C2340.7 1247.4 2340.2 1247.3 2339.8 1247.1Z" fill="#4B76BA"/>
<path d="M2355.9 1297.9C2355 1297.5 2354.4 1296.7 2354.3 1295.6C2354.2 1294.2 2355.3 1292.9 2356.8 1292.9C2372.9 1292 2393.9 1286.8 2414.3 1253.4C2415 1252.2 2416.7 1251.8 2417.9 1252.5C2419.1 1253.2 2419.5 1254.9 2418.8 1256.1C2409 1272.2 2398.3 1283.3 2386.1 1290.1C2374.9 1296.3 2364.8 1297.6 2357.2 1298C2356.6 1298.1 2356.2 1298 2355.9 1297.9Z" fill="#4B76BA"/>
<path fill-rule="evenodd" clip-rule="evenodd" d="M2390.5 1377.1L2404.8 1396.8L2419.1 1416.5H2361.8L2376.2 1396.8L2390.5 1377.1Z" fill="#154A9A"/>
<path fill-rule="evenodd" clip-rule="evenodd" d="M2466 1343.4C2462.9 1380 2430.3 1408.8 2390.5 1408.8C2350.8 1408.8 2318.2 1380 2315 1343.4H2466Z" fill="#4B76BA"/>
<path fill-rule="evenodd" clip-rule="evenodd" d="M2374.7 1402.6C2347.1 1396.8 2326.1 1374.7 2323.8 1347.6H2331.1C2334.6 1372.1 2351.5 1392.7 2374.7 1402.6Z" fill="white"/>
</svg>
